# xmcd CD database file
#
# Track frame offsets:
#	187
#	13762
#	26062
#	37912
#	54112
#	100462
#	139312
#	161662
#	185362
#	201187
#	220237
#
# Disc length: 3222 seconds
#
# Revision: 2
# Processed by: cddbd v1.5PL3 Copyright (c) Steve Scherf et al.
# Submitted via: CDex 1.50
#
DISCID=960c940b
DTITLE=B.B. King - B.B. King 1949-1991
DYEAR=1992
DGENRE=Blues
TTITLE0=Blues At Midnight
TTITLE1=How Blue Can You Get
TTITLE2=All Over Again
TTITLE3=Tired Of Your Jive
TTITLE4=Lucille
TTITLE5=Why I Sing The Blues
TTITLE6=Confessin` The Blues
TTITLE7=Ghetto Woman
TTITLE8=I Like To Live The Love
TTITLE9=When It All Comes Down
TTITLE10=Darlin' You Know I Love You
EXTD=YEAR: 1992
EXTT0=
EXTT1=
EXTT2=
EXTT3=
EXTT4=
EXTT5=
EXTT6=
EXTT7=
EXTT8=
EXTT9=
EXTT10=
PLAYORDER=
